<?xml version="1.0" encoding="utf-8"?><!-- Uploaded to: SVG Repo, www.svgrepo.com, Generator: SVG Repo Mixer Tools -->
<svg width="800px" height="800px" viewBox="0 0 24 24" id="Flat_Color" data-name="Flat Color" xmlns="http://www.w3.org/2000/svg"><path id="secondary" d="M18.78,2.37A1,1,0,0,0,18,2a1,1,0,0,0-.78.45C15.5,5,12,5,12,5S8.5,5,6.83,2.45A1,1,0,0,0,6.05,2a1,1,0,0,0-.83.37A10.53,10.53,0,0,0,3,9a10.53,10.53,0,0,0,2.22,6.63,1,1,0,0,0,1.61-.08C8.5,13.05,12,13,12,13s3.5.05,5.17,2.55A1,1,0,0,0,18,16H18a1,1,0,0,0,.78-.37A10.53,10.53,0,0,0,21,9,10.53,10.53,0,0,0,18.78,2.37Z" style="fill:#2ca9bc"></path><path id="primary" d="M12,22a1,1,0,0,1-1-1V3a1,1,0,0,1,2,0V21A1,1,0,0,1,12,22Z" style="fill:#000000"></path></svg>